<?xml version="1.0" encoding="UTF-8" standalone="no"?>
<svg width="27px" height="25px" viewBox="0 0 27 25" version="1.1" xmlns="http://www.w3.org/2000/svg" xmlns:xlink="http://www.w3.org/1999/xlink" xmlns:sketch="http://www.bohemiancoding.com/sketch/ns">
    <!-- Generator: Sketch 3.3 (11970) - http://www.bohemiancoding.com/sketch -->
    <title>Fill 3</title>
    <desc>Created with Sketch.</desc>
    <defs></defs>
    <g id="Page-1" stroke="none" stroke-width="1" fill="none" fill-rule="evenodd" sketch:type="MSPage">
        <g id="Mobile-Portrait" sketch:type="MSArtboardGroup" transform="translate(-270.000000, -49.000000)" fill="#FFFFFF">
            <path d="M270.493856,61.8167335 C270.493856,67.4792277 274.165783,72.2825524 279.258645,73.977288 C279.899875,74.0953058 280.13355,73.6995528 280.13355,73.3596615 C280.13355,73.0559624 280.122535,72.2495074 280.116241,71.1802661 C276.551316,71.9544629 275.79915,69.4619268 275.79915,69.4619268 C275.216142,67.9811968 274.375855,67.5870173 274.375855,67.5870173 C273.212199,66.7923641 274.463975,66.8080998 274.463975,66.8080998 C275.750369,66.8985801 276.427004,68.1291124 276.427004,68.1291124 C277.570203,70.0874212 279.427017,69.5217225 280.157154,69.193633 C280.273598,68.3659348 280.604834,67.8010229 280.97069,67.4808013 C278.124887,67.1574325 275.132742,66.0575066 275.132742,61.1463924 C275.132742,59.747488 275.632351,58.6027153 276.452181,57.7073536 C276.320001,57.383198 275.880188,56.0794947 276.578067,54.3155219 C276.578067,54.3155219 277.653603,53.9709099 280.102079,55.6294534 C281.124113,55.3446371 282.220892,55.2030158 283.310589,55.1975083 C284.3995,55.2030158 285.495492,55.3446371 286.5191,55.6294534 C288.966002,53.9709099 290.039965,54.3155219 290.039965,54.3155219 C290.739417,56.0794947 290.299604,57.383198 290.168211,57.7073536 C290.989614,58.6027153 291.485289,59.747488 291.485289,61.1463924 C291.485289,66.0700952 288.488424,67.1534986 285.633966,67.4705731 C286.093449,67.8663261 286.503364,68.6483908 286.503364,69.8443045 C286.503364,71.5571363 286.487629,72.9395181 286.487629,73.3596615 C286.487629,73.7026999 286.718944,74.1016001 287.368828,73.9765012 C292.457756,72.2778316 296.126536,67.4776542 296.126536,61.8167335 C296.126536,54.7380256 290.387724,49 283.309016,49 C276.232668,49 270.493856,54.7380256 270.493856,61.8167335 Z" id="Fill-3" sketch:type="MSShapeGroup"></path>
        </g>
    </g>
</svg>