<?xml version="1.0" encoding="UTF-8" standalone="no"?>
<svg width="31px" height="25px" viewBox="0 0 31 25" version="1.1" xmlns="http://www.w3.org/2000/svg" xmlns:xlink="http://www.w3.org/1999/xlink" xmlns:sketch="http://www.bohemiancoding.com/sketch/ns">
    <!-- Generator: Sketch 3.3 (11970) - http://www.bohemiancoding.com/sketch -->
    <title>Fill 1</title>
    <desc>Created with Sketch.</desc>
    <defs></defs>
    <g id="Page-1" stroke="none" stroke-width="1" fill="none" fill-rule="evenodd" sketch:type="MSPage">
        <g id="Mobile-Portrait" sketch:type="MSArtboardGroup" transform="translate(-218.000000, -49.000000)" fill="#FFFFFF">
            <path d="M227.585635,74 C224.054291,74 220.767325,72.9552296 218,71.1645482 C218.489204,71.2228348 218.986993,71.2526533 219.491693,71.2526533 C222.421344,71.2526533 225.117652,70.243665 227.257752,68.5509906 C224.52142,68.500018 222.212083,66.6753549 221.416402,64.1679059 C221.798132,64.2416081 222.189897,64.2811034 222.59281,64.2811034 C223.163177,64.2811034 223.715594,64.2040256 224.240362,64.0597719 C221.379611,63.4800565 219.224237,60.9291739 219.224237,57.8712654 C219.224237,57.8447101 219.224237,57.8182673 219.224683,57.7919371 C220.067857,58.2646437 221.031995,58.5485377 222.057116,58.5812817 C220.37924,57.4495315 219.275186,55.517747 219.275186,53.3281738 C219.275186,52.1715561 219.583559,51.0874029 220.121817,50.1552674 C223.205988,53.9736022 227.813626,56.4862273 233.010694,56.7494171 C232.904113,56.2875127 232.848704,55.8058044 232.848704,55.3111559 C232.848704,51.8257748 235.648583,49 239.10211,49 C240.900615,49 242.525758,49.7665025 243.666491,50.9931091 C245.090847,50.7100028 246.429134,50.1847483 247.637317,49.4615669 C247.17041,50.9352726 246.178958,52.1721188 244.887829,52.9532492 C246.152758,52.8006688 247.357931,52.4614138 248.479376,51.9594514 C247.640996,53.2251033 246.580756,54.336712 245.359084,55.2265391 C245.371124,55.4971554 245.377145,55.7693471 245.377145,56.0430016 C245.377145,64.3830487 239.087505,74 227.585635,74" id="Fill-1" sketch:type="MSShapeGroup"></path>
        </g>
    </g>
</svg>